<svg clip-rule="evenodd" fill-rule="evenodd" stroke-linejoin="round" stroke-miterlimit="2" viewBox="0 0 65 65" xmlns="http://www.w3.org/2000/svg"><path d="m46.566 15.667c2.227 0 4.036 1.808 4.036 4.036s-1.809 4.037-4.036 4.037c-2.228 0-4.037-1.809-4.037-4.037s1.809-4.036 4.037-4.036z" fill="#57d5a8"/><g fill="#fff"><path d="m38.696 48.952h-22.542v-5.256l10.638-10.555c1.461-1.596 2.541-2.989 3.242-4.179.7-1.189 1.05-2.319 1.05-3.388 0-1.46-.369-2.609-1.107-3.444-.738-.836-1.792-1.254-3.162-1.254-1.476 0-2.639.508-3.49 1.525-.851 1.016-1.276 2.353-1.276 4.009h-5.908c0-2.003-.164-3.832.792-5.489.956-1.656 2.308-2.955 4.054-3.896 1.747-.941 3.727-1.412 5.941-1.412 3.388 0 6.02.813 7.894 2.44 1.875 1.626 2.812 3.922 2.812 6.889 0 1.626-.421 3.283-1.265 4.969-.843 1.687-2.288 3.652-4.336 5.896l-7.477 7.882h14.14z" fill-rule="nonzero"/><path d="m43.944 26.416h5.242v22.526h-5.242z"/><path d="m32.829 0c11.748.056 23.176 6.923 28.642 17.589 5.34 10.418 4.449 23.777-2.481 33.458-7.089 9.902-20.071 15.26-32.272 12.959-13.002-2.452-23.994-13.478-25.949-27.113-1.698-11.852 3.711-24.483 13.909-31.375 5.239-3.541 11.53-5.467 17.838-5.517.104-.001.208-.001.313-.001zm-.192 5.243c-6.792.032-13.513 2.71-18.446 7.358-4.081 3.844-6.933 8.976-8.007 14.481-2.032 10.417 2.612 21.858 11.768 27.847 8.7 5.692 20.699 5.787 29.545 0 6.413-4.195 10.904-11.179 11.993-18.78 1.219-8.506-1.901-17.513-8.114-23.436-4.898-4.67-11.554-7.393-18.389-7.469-.117-.001-.234-.002-.35-.001z"/></g></svg>