<svg height="132" viewBox="0 0 90 132" width="90" xmlns="http://www.w3.org/2000/svg"><g fill="#fff"><path d="m35.1 102.582692c-4.963438.003186-8.984815 4.028867-8.9826915 8.992306.0021235 4.963438 4.0269437 8.985677 8.9903826 8.984615 4.9634389-.001061 8.9865386-4.02502 8.9865397-8.988459-.0031848-4.965123-4.0291065-8.988463-8.9942308-8.988462zm3.2365385 12.225c-1.5392649 1.544619-3.9554954 1.786282-5.7701847.577115-1.8146892-1.209168-2.5220433-3.532145-1.6892277-5.547486.8328155-2.015342 2.9736767-3.161328 5.1125768-2.736723 2.1389002.424606 3.6796806 2.301456 3.6795279 4.482094.0011804 1.209227-.4782297 2.369358-1.3326923 3.225zm16.3846153-12.225c-1.6092426.000689-3.1882421.437306-4.5692307 1.263462 0-2.821154 0-5.3538463 0-6.5480771 0-3.4615384-4.4307693-3.1153846-4.4307693-3.1153846v17.4057697c.0031858 4.963438 4.0288667 8.984815 8.9923053 8.982691 4.9634385-.002123 8.985677-4.026944 8.9846158-8.990383-.0010613-4.963438-4.0250205-8.986538-8.9884595-8.986539zm3.2307693 12.225c-1.5374303 1.541161-3.9493705 1.781821-5.7610081.574826s-2.5185115-3.525552-1.6883944-5.537957 2.9660743-3.158293 5.1018124-2.736996 3.6765486 2.292467 3.6802824 4.469358c.0065678 1.211981-.4735467 2.375895-1.3326923 3.230769zm16.3673077-12.230769c-3.7885144.001327-7.169471 2.377954-8.4533978 5.942273-1.2839268 3.56432-.1951453 7.55102 2.7222777 9.967936 2.917423 2.416917 7.037073 2.745102 10.3003508.82056v1.061539h4.425v-9.023077c-.1190725-4.880612-4.1121688-8.773817-8.9942307-8.769231zm3.2192307 12.230769c-1.5385635 1.535183-3.9470757 1.770358-5.753547.561794-1.8064712-1.208563-2.5082067-3.524553-1.6763328-5.532524.831874-2.007972 2.9658681-3.149159 5.0977675-2.726111 2.1318994.423047 3.6684511 2.292605 3.6705739 4.466072.0005472 1.211928-.4810065 2.374299-1.3384616 3.230769zm-59.2326923-3.132692c-.0014221-1.763367-.531998-3.485729-1.5230769-4.944231 1.8346154-1.153846 1.4826923-3.894231 1.4826923-3.894231h-8.82115383c-4.89887194 0-8.87019231 3.971321-8.87019231 8.870193s3.97132037 8.870192 8.87019231 8.870192h1.15384613c1.4743061.003756 2.7705222.976825 3.1856673 2.391479.4151451 1.414655-.1496849 2.933867-1.3881641 3.733718s-2.85555206.689785-3.97422635-.270507c-1.11867428-.960292-1.47243691-2.542029-.86943067-3.887382l-3.975-1.794231c-1.63459691 3.621347-.24860984 7.891875 3.2010528 9.86314 3.44966262 1.971266 7.83255422.99729 10.12265372-2.249478 2.2900996-3.246769 1.7369467-7.702371-1.2775527-10.290585 1.7283016-1.67831 2.6971757-3.989023 2.6826923-6.398077zm-12.05192305 3.184615c-1.27594821-1.272888-1.66934465-3.184289-.99977026-4.857596.66957439-1.673308 2.27294285-2.785703 4.07477026-2.827019h.34615385c2.0098095.101783 3.7084572 1.523966 4.1619673 3.484584s-.4480836 3.984263-2.2090537 4.958264c-1.76097012.974002-3.95431913.662185-5.37406745-.764002zm78.93461535-20.5788458v26.2499998h4.4307693s0-19.673077 0-23.1288459c0-3.4557693-4.4307693-3.1211539-4.4307693-3.1211539zm-65.175 0v26.2499998h4.4307693v-23.1346152c0-3.4673076-4.4307693-3.1153846-4.4307693-3.1153846zm34.8288462-61.3673077c-2.5939984-2.6056095-6.0662936-4.1504517-9.7384615-4.3326923h-1.1538462c-6.7961903.1668745-12.6149609 4.9189204-14.1362815 11.5447512s1.6417603 13.4401502 7.6844759 16.5548955c6.0427156 3.1147452 13.4280865 1.7376731 17.9422235-3.3454968 4.514137-5.08317 5.0088584-12.5795212 1.2018898-18.2118422-.5294277-.7913205-1.1320794-1.5311141-1.8-2.2096154z"/><path d="m61.7826923 0h-33.3634615c-15.3545782 0-27.80192311 12.4473449-27.80192311 27.8019231v33.3519231c.00106202 13.3104758 9.43423651 24.753642 22.50000001 27.2942307-.2907788-1.5523851-.4375561-3.1283092-.4384615-4.7076923 0-.4038461 0-.8076923.0346153-1.2115384 0-.1269231 0-.248077 0-.375 0-.2961539.023077-.5903847.0692308-.8826924 0-.1923076.0211539-.3846153.0634615-.576923.0288462-.2596154.0634616-.5192308.1038462-.773077.0403846-.2538461.075-.45.1153846-.675l.0634616-.3346153c.1615384-.8346154.3538461-1.6557693.576923-2.4634616.313673-1.0821588.6991431-2.1422017 1.1538462-3.1730769l8.2326923 3.7211538 4.9038461 2.2153847c-.636371 1.4206837-.9628449 2.9606176-.9576923 4.5173077-.0007103 1.8210453.4470924 3.6142376 1.3038462 5.2211538h19.5346154c2.3006881-4.2804921 1.5222366-9.5631767-1.9153846-12.9980769-.2134616-.2076923-.4326923-.4038462-.6634616-.5769231-.2307692-.1730769-.4384615-.3519231-.6692307-.5192308-1.8785799-1.377916-4.1491093-2.1179104-6.4788462-2.1115384 0 0-2.5269231 0-3.7903846 0-16.1893778 0-29.3134616-13.1240838-29.3134616-29.3134616 0-16.1893777 13.1240838-29.3134615 29.3134616-29.3134615h.7846154 28.3615384s1.1538462 9.1096154-4.8865384 12.8596154c.4153846.6153846.8 1.2461538 1.1538461 1.8923077 6.627868 11.6152604 4.5560784 26.243566-5.0365384 35.5615384.576923.4788462 1.0788461.9807693 1.5923077 1.5l.2596153.2596154c.1903847.2019231.375.4096154.5769231.6173077l.3173077.3519231c.1673077.1961538.3288462.3980769.4961539.5769231l.3288461.4096153c.15.1961539.3.398077.4442308.5769231l.3288461.4557693c.1384616.1961538.2711539.3980769.4038462.576923l.3173077.4961539c.1269231.2019231.2423077.4038461.3634615.5769231l.3.5307692c.1096154.2019231.2192308.4038461.3230769.6115384.1038462.2076924.1903847.375.2826923.5769231.0923077.2019231.1961539.4096154.2884616.6115385s.1730769.3980769.2596154.5769231c.0865384.1788461.1730769.4096153.2538461.6173077.0807693.2076923.1557693.4153846.2365385.6288461s.15.4096154.2192308.6173077c.0692307.2076923.1384615.4384615.2076923.6576923.0692307.2192308.1211538.4096154.1788461.6115385.0576923.201923.1211539.4615384.1788462.6980769s.0980769.4038461.1442307.6057692c.0461539.2019231.098077.4903846.1442308.7384616.0461539.2480769.075.3923077.1096154.576923.0346154.1846154.075.5307693.1096154.7961539s.0519231.3692308.075.5769231c.0346154.3.0519231.6057692.075.9115384 0 .1557693 0 .3115385.0346154.4673077.026923.4615385.0403846.9269231.0403846 1.3961539-.0008283.8825604-.0470432 1.7644943-.1384616 2.6423077 9.7858841-4.5424608 16.0602339-14.3362936 16.0961539-25.125v-33.3519231c0-15.3545782-12.447345-27.8019231-27.8019231-27.8019231z"/></g></svg>