<?xml version="1.0" ?><svg height="100" id="svg8" version="1.1" viewBox="0 0 31.75 31.75" width="100" xmlns="http://www.w3.org/2000/svg" xmlns:cc="http://creativecommons.org/ns#" xmlns:dc="http://purl.org/dc/elements/1.1/" xmlns:rdf="http://www.w3.org/1999/02/22-rdf-syntax-ns#" xmlns:svg="http://www.w3.org/2000/svg"><defs id="defs2"><pattern height="6" id="EMFhbasepattern" patternUnits="userSpaceOnUse" width="6" x="0" y="0"/><pattern height="6" id="EMFhbasepattern-3" patternUnits="userSpaceOnUse" width="6" x="0" y="0"/><pattern height="6" id="EMFhbasepattern-4" patternUnits="userSpaceOnUse" width="6" x="0" y="0"/><pattern height="6" id="EMFhbasepattern-6" patternUnits="userSpaceOnUse" width="6" x="0" y="0"/><pattern height="6" id="EMFhbasepattern-9" patternUnits="userSpaceOnUse" width="6" x="0" y="0"/><pattern height="6" id="EMFhbasepattern-2" patternUnits="userSpaceOnUse" width="6" x="0" y="0"/><pattern height="6" id="EMFhbasepattern-5" patternUnits="userSpaceOnUse" width="6" x="0" y="0"/><pattern height="6" id="EMFhbasepattern-95" patternUnits="userSpaceOnUse" width="6" x="0" y="0"/><pattern height="6" id="EMFhbasepattern-3-2" patternUnits="userSpaceOnUse" width="6" x="0" y="0"/><pattern height="6" id="EMFhbasepattern-4-5" patternUnits="userSpaceOnUse" width="6" x="0" y="0"/><pattern height="6" id="EMFhbasepattern-6-1" patternUnits="userSpaceOnUse" width="6" x="0" y="0"/><pattern height="6" id="EMFhbasepattern-9-3" patternUnits="userSpaceOnUse" width="6" x="0" y="0"/><pattern height="6" id="EMFhbasepattern-7" patternUnits="userSpaceOnUse" width="6" x="0" y="0"/><pattern height="6" id="EMFhbasepattern-0" patternUnits="userSpaceOnUse" width="6" x="0" y="0"/></defs><g id="layer1" transform="translate(0,-270.54165)"><path d="m 14.530274,284.43554 c -0.62153,-0.12115 -1.245469,-0.0803 -1.816407,0.14063 -1.141876,0.4418 -1.933593,1.65324 -1.933593,3.22461 0,1.55481 0.783704,2.67793 1.722656,3.44922 0.938952,0.77128 2.024324,1.30681 2.91211,1.97265 l 0.460937,0.34571 0.460937,-0.34571 c 0.887784,-0.66584 1.971205,-1.20137 2.910156,-1.97265 0.938951,-0.77129 1.722656,-1.89441 1.722656,-3.44922 0,-1.57137 -0.789765,-2.78281 -1.93164,-3.22461 -0.996251,-0.38546 -2.13284,-0.13507 -3.162109,0.47656 -0.439409,-0.26111 -0.882702,-0.52693 -1.345703,-0.61719 z m -0.283203,1.51368 c 0.370029,0.0729 0.771862,0.24588 1.167968,0.54297 l 0.460938,0.3457 0.460937,-0.3457 c 0.792211,-0.59417 1.605712,-0.69361 2.146484,-0.48438 0.540774,0.20923 0.951172,0.68011 0.951172,1.79297 0,1.08935 -0.418413,1.65082 -1.162109,2.26172 -0.623621,0.51226 -1.524847,1.02427 -2.396484,1.61914 -0.871639,-0.59487 -1.772864,-1.10688 -2.396485,-1.61914 -0.743697,-0.6109 -1.162109,-1.17237 -1.162109,-2.26172 0,-1.11286 0.410399,-1.58374 0.951171,-1.79297 0.270387,-0.10461 0.608486,-0.13149 0.978517,-0.0586 z" id="path4852" style="color:#000000;font-style:normal;font-variant:normal;font-weight:normal;font-stretch:normal;font-size:medium;line-height:normal;font-family:sans-serif;font-variant-ligatures:normal;font-variant-position:normal;font-variant-caps:normal;font-variant-numeric:normal;font-variant-alternates:normal;font-feature-settings:normal;text-indent:0;text-align:start;text-decoration:none;text-decoration-line:none;text-decoration-style:solid;text-decoration-color:#000000;letter-spacing:normal;word-spacing:normal;text-transform:none;writing-mode:lr-tb;direction:ltr;text-orientation:mixed;dominant-baseline:auto;baseline-shift:baseline;text-anchor:start;white-space:normal;shape-padding:0;clip-rule:nonzero;display:inline;overflow:visible;visibility:visible;opacity:1;isolation:auto;mix-blend-mode:normal;color-interpolation:sRGB;color-interpolation-filters:linearRGB;solid-color:#000000;solid-opacity:1;vector-effect:none;fill:#e64c66;fill-opacity:1;fill-rule:nonzero;stroke:none;stroke-width:1.53600001;stroke-linecap:butt;stroke-linejoin:miter;stroke-miterlimit:4;stroke-dasharray:none;stroke-dashoffset:0;stroke-opacity:1;color-rendering:auto;image-rendering:auto;shape-rendering:auto;text-rendering:auto;enable-background:accumulate"/><path d="M 25.958984 10.0625 C 23.777171 10.0625 22.109375 11.868456 22.109375 13.912109 L 22.109375 24.634766 A 1.2021485 1.2021485 0 0 0 23.310547 25.837891 A 1.2021485 1.2021485 0 0 0 24.513672 24.634766 L 24.513672 13.912109 C 24.513672 13.179479 25.112395 12.460937 25.958984 12.460938 C 26.80519 12.460938 27.412109 13.18055 27.412109 13.912109 L 27.412109 18.078125 L 29.816406 18.078125 L 29.816406 13.912109 C 29.816406 11.868834 28.141182 10.0625 25.958984 10.0625 z " id="path4854" style="color:#000000;font-style:normal;font-variant:normal;font-weight:normal;font-stretch:normal;font-size:medium;line-height:normal;font-family:sans-serif;font-variant-ligatures:normal;font-variant-position:normal;font-variant-caps:normal;font-variant-numeric:normal;font-variant-alternates:normal;font-feature-settings:normal;text-indent:0;text-align:start;text-decoration:none;text-decoration-line:none;text-decoration-style:solid;text-decoration-color:#000000;letter-spacing:normal;word-spacing:normal;text-transform:none;writing-mode:lr-tb;direction:ltr;text-orientation:mixed;dominant-baseline:auto;baseline-shift:baseline;text-anchor:start;white-space:normal;shape-padding:0;clip-rule:nonzero;display:inline;overflow:visible;visibility:visible;opacity:1;isolation:auto;mix-blend-mode:normal;color-interpolation:sRGB;color-interpolation-filters:linearRGB;solid-color:#000000;solid-opacity:1;vector-effect:none;fill:#e64c66;fill-opacity:1;fill-rule:nonzero;stroke:none;stroke-width:2.40377951;stroke-linecap:butt;stroke-linejoin:miter;stroke-miterlimit:4;stroke-dasharray:none;stroke-dashoffset:0;stroke-opacity:1;color-rendering:auto;image-rendering:auto;shape-rendering:auto;text-rendering:auto;enable-background:accumulate" transform="matrix(0.3175,0,0,0.3175,0,270.54165)"/><path d="M 17.255859 18.078125 C 14.060998 18.078125 11.332032 20.64193 11.332031 23.878906 L 11.332031 84.072266 C 11.332031 87.309116 14.018996 89.996094 17.255859 89.996094 L 82.744141 89.996094 C 85.981016 89.996094 88.667969 87.309116 88.667969 84.072266 L 88.667969 23.878906 C 88.667969 20.64193 85.939016 18.078125 82.744141 18.078125 L 77.890625 18.078125 L 77.890625 20.59375 L 82.744141 20.59375 C 84.596619 20.59375 86.152344 22.068229 86.152344 23.878906 L 86.152344 28.171875 L 13.847656 28.171875 L 13.847656 23.878906 C 13.847656 22.068229 15.403405 20.59375 17.255859 20.59375 L 22.109375 20.59375 L 22.109375 18.078125 L 17.255859 18.078125 z M 24.513672 18.078125 L 24.513672 20.59375 L 75.486328 20.59375 L 75.486328 18.078125 L 24.513672 18.078125 z M 13.847656 30.6875 L 86.152344 30.6875 L 86.152344 84.072266 C 86.152344 85.882691 84.554616 87.480469 82.744141 87.480469 L 17.255859 87.480469 C 15.445406 87.480469 13.847656 85.882691 13.847656 84.072266 L 13.847656 30.6875 z " id="path4856" style="color:#000000;font-style:normal;font-variant:normal;font-weight:normal;font-stretch:normal;font-size:medium;line-height:normal;font-family:sans-serif;font-variant-ligatures:normal;font-variant-position:normal;font-variant-caps:normal;font-variant-numeric:normal;font-variant-alternates:normal;font-feature-settings:normal;text-indent:0;text-align:start;text-decoration:none;text-decoration-line:none;text-decoration-style:solid;text-decoration-color:#000000;letter-spacing:normal;word-spacing:normal;text-transform:none;writing-mode:lr-tb;direction:ltr;text-orientation:mixed;dominant-baseline:auto;baseline-shift:baseline;text-anchor:start;white-space:normal;shape-padding:0;clip-rule:nonzero;display:inline;overflow:visible;visibility:visible;opacity:1;isolation:auto;mix-blend-mode:normal;color-interpolation:sRGB;color-interpolation-filters:linearRGB;solid-color:#000000;solid-opacity:1;vector-effect:none;fill:#2d3e50;fill-opacity:1;fill-rule:nonzero;stroke:none;stroke-width:2.51716542;stroke-linecap:butt;stroke-linejoin:miter;stroke-miterlimit:4;stroke-dasharray:none;stroke-dashoffset:0;stroke-opacity:1;color-rendering:auto;image-rendering:auto;shape-rendering:auto;text-rendering:auto;enable-background:accumulate" transform="matrix(0.3175,0,0,0.3175,0,270.54165)"/><path d="M 74.041016 10.0625 C 71.85883 10.0625 70.183594 11.868834 70.183594 13.912109 L 70.183594 18.078125 L 72.587891 18.078125 L 72.587891 13.912109 C 72.587891 13.18055 73.194839 12.460938 74.041016 12.460938 C 74.887526 12.460938 75.486328 13.179511 75.486328 13.912109 L 75.486328 24.634766 A 1.2021485 1.2021485 0 0 0 76.6875 25.837891 A 1.2021485 1.2021485 0 0 0 77.890625 24.634766 L 77.890625 13.912109 C 77.890625 11.868424 76.222798 10.0625 74.041016 10.0625 z " id="path4858" style="color:#000000;font-style:normal;font-variant:normal;font-weight:normal;font-stretch:normal;font-size:medium;line-height:normal;font-family:sans-serif;font-variant-ligatures:normal;font-variant-position:normal;font-variant-caps:normal;font-variant-numeric:normal;font-variant-alternates:normal;font-feature-settings:normal;text-indent:0;text-align:start;text-decoration:none;text-decoration-line:none;text-decoration-style:solid;text-decoration-color:#000000;letter-spacing:normal;word-spacing:normal;text-transform:none;writing-mode:lr-tb;direction:ltr;text-orientation:mixed;dominant-baseline:auto;baseline-shift:baseline;text-anchor:start;white-space:normal;shape-padding:0;clip-rule:nonzero;display:inline;overflow:visible;visibility:visible;opacity:1;isolation:auto;mix-blend-mode:normal;color-interpolation:sRGB;color-interpolation-filters:linearRGB;solid-color:#000000;solid-opacity:1;vector-effect:none;fill:#e64c66;fill-opacity:1;fill-rule:nonzero;stroke:none;stroke-width:2.40377951;stroke-linecap:butt;stroke-linejoin:miter;stroke-miterlimit:4;stroke-dasharray:none;stroke-dashoffset:0;stroke-opacity:1;color-rendering:auto;image-rendering:auto;shape-rendering:auto;text-rendering:auto;enable-background:accumulate" transform="matrix(0.3175,0,0,0.3175,0,270.54165)"/></g></svg>